<svg xmlns="http://www.w3.org/2000/svg" viewBox="0 0 436.71 188"><defs><style>.cls-1{fill:#03507c;}.cls-2{font-size:32px;fill:#231f20;font-family:Montserrat-Light, Montserrat;font-weight:300;letter-spacing:0.02em;}.cls-3{letter-spacing:0.05em;}.cls-4{letter-spacing:0.06em;}.cls-5{letter-spacing:0.05em;}.cls-6{letter-spacing:0.06em;}</style></defs><g id="Layer_2" data-name="Layer 2"><g id="Layer_1-2" data-name="Layer 1"><path class="cls-1" d="M173.32,0c2.73,1,3.36,3.23,3.4,5.74a17,17,0,0,1-.48,3.8A39,39,0,0,1,171.39,22a121.54,121.54,0,0,0-9.08,18.68q-8.34,21-16.72,41.9c-.24.59-.45,1.19-.76,2,1.52-.18,2.87-.31,4.2-.49a236.94,236.94,0,0,1,33.33-2.64c1,0,2-.09,3,0a3.89,3.89,0,0,1,3.47,1.94,2.42,2.42,0,0,1-1.77,1.43A36.83,36.83,0,0,1,182.15,86c-10,1.58-20,3.07-30.05,4.63-3.06.48-6.09,1.09-9.14,1.59a1.77,1.77,0,0,0-1.57,1.33c-.87,2.63-1.73,5.27-2.71,7.86q-3.54,9.44-7.19,18.83c-6.87,17.81-13.13,35.84-18.52,54.16a43.05,43.05,0,0,0-2,10,10.74,10.74,0,0,1-1,3,.75.75,0,0,1-1.19.39,5.64,5.64,0,0,1-1.87-1.86,9.93,9.93,0,0,1-.85-3.53,48,48,0,0,1,1.13-11.76,286.75,286.75,0,0,1,9-33.51c4.35-13.61,8.91-27.15,13.38-40.72.16-.49.3-1,.52-1.69-1.92.38-3.63.68-5.33,1.06q-18.1,4.11-36.2,8.22a2.55,2.55,0,0,0-2.09,1.82c-4.07,11.07-7.42,22.37-10.49,33.74-1.41,5.2-2.85,10.39-4.25,15.59a22.33,22.33,0,0,0-.56,2.82,4.12,4.12,0,0,1-1.91,2.82,1.14,1.14,0,0,1-1.59-.14,4,4,0,0,1-1.33-3c0-2.39,0-4.8.23-7.18,1-9.57,3.18-18.92,5.42-28.25,1.1-4.62,2.32-9.2,3.49-13.8.06-.26.11-.51.23-1-.63.12-1.12.19-1.6.31q-22.28,5.92-44.18,13.07c-7,2.27-14.11,4.16-21.21,6.07a22.37,22.37,0,0,1-4.93.26,3.07,3.07,0,0,1-.79-.11C0,126.37-.82,124.32.86,121.81a11.4,11.4,0,0,1,3.46-3.28,38.09,38.09,0,0,1,12.94-5.37,211.58,211.58,0,0,0,21.49-5.67q18.66-5.77,37.76-9.84a2.66,2.66,0,0,1,.47-.11c1.25-.06,1.76-.76,2.1-1.94C82.34,84.32,86,73.18,90.32,62.26c.87-2.18,1.67-4.4,2.73-6.48a3.59,3.59,0,0,0-1.29-4.45c-.46-.28-.94-.53-1.37-.83a4.32,4.32,0,0,1-.67-6.78,15.6,15.6,0,0,1,2.61-2.1,55.51,55.51,0,0,1,11.24-5.37,15.93,15.93,0,0,1,2.15-.6A5.62,5.62,0,0,1,112,38.48a1.62,1.62,0,0,1,.19.6c.32,3.24.06,6.32-1.87,9.15-4.07,6-7,12.59-9.79,19.22-3.45,8.09-7,16.14-9.66,24.55-.24.75-.46,1.51-.7,2.32,7.17-1.47,14.23-3,21.34-4.35s14.3-2.37,21.5-3.55c.3-.78.59-1.52.86-2.26,7-19.66,14.12-39.24,21.92-58.58,2.57-6.36,5.95-12.39,9-18.57a13.29,13.29,0,0,1,1.13-1.74C167.6,2.81,169.68.8,172.68,0Z"></path><path class="cls-1" d="M434.11,95.13A7.42,7.42,0,0,1,433,96.6a.9.9,0,0,1-1.56-.35,7.82,7.82,0,0,1-.52-1.66c-.12-.52-.14-1.06-.29-1.57-.45-1.56-1.24-1.88-2.59-1a13.57,13.57,0,0,0-1.95,1.4c-2.53,2.29-5.17,4.47-7.5,7a137.46,137.46,0,0,0-14.15,17.76,57.41,57.41,0,0,0-3.29,5.83,1.42,1.42,0,0,1-1.33.9c-5,.35-6.62-2.86-5.68-6.7a27.22,27.22,0,0,1,1.63-4.5c1-2.29,2.16-4.52,3.25-6.78.2-.41.35-.84.52-1.26l-.31-.23a7.66,7.66,0,0,1-.5.76c-8,9.75-18.23,15.74-30.4,18.62a29.67,29.67,0,0,1-12.23.5,12.74,12.74,0,0,1-5-2,8,8,0,0,1-3.25-9.13,13.36,13.36,0,0,1,.68-2c3.53-7.48,8.2-14.1,14.87-19.13a19.91,19.91,0,0,1,13-4.28,6.83,6.83,0,0,1,1.11.09c4.88.8,7.19,4.71,5.5,9.49a23.45,23.45,0,0,1-15,15.07,18.41,18.41,0,0,1-7.52,1.28,6,6,0,0,1-4.93-2.49,11.89,11.89,0,0,0-1.75,3.74,1.7,1.7,0,0,0,1,2.26,16,16,0,0,0,3.75,1.29,25.37,25.37,0,0,0,11.09-.7,52.6,52.6,0,0,0,14.75-6A50.44,50.44,0,0,0,396,102.76c2.71-3.07,5.1-6.43,7.59-9.69a5.14,5.14,0,0,1,2.57-2,8.88,8.88,0,0,0,1.27-.64,3.09,3.09,0,0,1,4.41,1.56,5.61,5.61,0,0,1,.36,3.45c-.21,1.25-.52,2.48-.83,3.94a9.84,9.84,0,0,0,.89-.66,69.69,69.69,0,0,1,9.41-8.18,36.34,36.34,0,0,1,6.07-3.5c3-1.28,5.33.08,6.14,3.27a1.14,1.14,0,0,0,.25.38Zm-76.85,14.08.21.14a28.74,28.74,0,0,0,4.56-.94,52.9,52.9,0,0,0,7.22-2.75c4.12-2.42,5.2-5.3,6.75-8.71a3.68,3.68,0,0,0,.25-1.21c0-.32-.92-.11-1.32-.09A13.85,13.85,0,0,0,368.06,98a36.43,36.43,0,0,0-8.94,8.62C358.48,107.5,357.88,108.36,357.26,109.21Z"></path><path class="cls-1" d="M189.53,115.3c-1.68,4.06-3.68,8-3.25,12.57a2.92,2.92,0,0,0,2.55,0,41.23,41.23,0,0,0,5.85-2.55c4.95-2.95,9.8-6.06,14.65-9.16a3.94,3.94,0,0,0,1.19-1.62c1.3-2.74,2.44-5.57,3.84-8.26a31.2,31.2,0,0,1,3.06-4.46,5.24,5.24,0,0,1,1.63-1.27c1.5-.81,2.7-.35,3,1.3a9,9,0,0,1,0,3.47c-.35,1.82-1,3.59-1.49,5.38a1.54,1.54,0,0,0,0,1c.34-.37.66-.75,1-1.1,2.9-2.9,5.73-5.89,8.74-8.67a23,23,0,0,1,10.93-5.4,10.52,10.52,0,0,1,2.86-.19,5.11,5.11,0,0,1,4.94,6.4c-.64,3-1.45,5.9-2.27,8.82-1.1,3.9-2.29,7.77-3.43,11.66-.16.55-.23,1.12-.38,1.86a4.59,4.59,0,0,0,1.18-.12c1.71-.73,3.47-1.39,5.1-2.28a113.74,113.74,0,0,0,13-8.82,22.79,22.79,0,0,0,4-3.14c1.06-1.26,1.59-3,2.38-4.47a29.39,29.39,0,0,1,7.61-9.17,8.54,8.54,0,0,1,1.05-.73,5.62,5.62,0,0,1,5.71-.56c2.32-3,5.43-3.84,9-3.24a6.55,6.55,0,0,1,4.59,3.67,14,14,0,0,1,1.62,6.79,31.88,31.88,0,0,1-7.33,20.36,27.48,27.48,0,0,1-9.65,8,17.35,17.35,0,0,1-4.7,1.47c-4.92.78-9-1.72-10.69-6.4a19.79,19.79,0,0,1-.85-8.37c0-.37.07-.73.13-1.38-.53.41-.9.67-1.23,1A93.88,93.88,0,0,1,253.3,126a32.48,32.48,0,0,1-7.53,3.86,11.11,11.11,0,0,1-5.35.67c-1.68-.29-2.53-1-2.67-2.7a16.87,16.87,0,0,1,.18-4.92c1-4.79,2.3-9.53,3.46-14.3.42-1.75.79-3.51,1.16-5.15a1.57,1.57,0,0,0-2-.23,19.89,19.89,0,0,0-5.67,3.25,72.38,72.38,0,0,0-8.62,9.23c-.82,1-1.36,2.29-2.1,3.4-2,3-4.1,6.11-6.23,9.11a13,13,0,0,1-2.3,2.44,8.92,8.92,0,0,1-2.56,1.57,4.39,4.39,0,0,1-6.1-3.91,25.77,25.77,0,0,1,.37-4.28c.05-.42.16-.83.3-1.56l-1.32.92c-3.32,2.33-6.58,4.74-10,7a20.72,20.72,0,0,1-7.95,3.25c-4.51.74-7.62-1.66-8.05-6.22a14.42,14.42,0,0,1,.69-5.83,1,1,0,0,0-.07-.8c-.8.64-1.62,1.26-2.4,1.93-3,2.6-5.87,5.29-8.92,7.8-2.46,2-5.06,3.91-7.66,5.77a9.39,9.39,0,0,1-4.75,1.76c-4.92.36-8.23-2.45-8.59-7.38a21,21,0,0,1,1.72-9.83,33.69,33.69,0,0,1,2.36-4.54,57.13,57.13,0,0,1,12.62-14.36,20.87,20.87,0,0,1,10-4.72,11.37,11.37,0,0,1,10.66,3.42,8.37,8.37,0,0,1,2.4,5.29,7,7,0,0,1-.08,1.59c-.33,1.79-1.6,2.55-3.3,1.82a11.7,11.7,0,0,1-2.86-1.72c-2.81-2.33-5.85-2.44-9-1a20.51,20.51,0,0,0-4.18,2.65,45.32,45.32,0,0,0-10.72,12.82,17,17,0,0,0-2.15,6.65,9,9,0,0,0-.06,1.27c0,.72.46,1,1.09.7a8,8,0,0,0,1.71-.85c2.08-1.5,4.19-3,6.17-4.58,3.59-2.94,7-6,10.64-9,1.77-1.45,3.7-2.72,5.61-4a5.72,5.72,0,0,1,4-.88,3.24,3.24,0,0,1,2.61,1.61C188.4,113.82,189,114.53,189.53,115.3Zm94.19-18.09a5.07,5.07,0,0,1-1.11,4,31.15,31.15,0,0,1-3.85,4.47c-3.64,3.18-5,9.51-5.24,11.31a16.83,16.83,0,0,0-.06,5.92c.59,2.39,1.88,3.63,3.77,3.25a12.08,12.08,0,0,0,4.88-2.59,34.78,34.78,0,0,0,4.21-4.38c3-3.92,5.21-7.37,6.31-11.85a18.33,18.33,0,0,0,.46-6.51c-.46-4-2.44-5.25-6.31-4.21C285.82,96.86,284.84,97,283.72,97.21Z"></path><path class="cls-1" d="M361.56,80a84.68,84.68,0,0,0-12.13,11.36c-3.83,4.3-7.58,8.69-11.49,12.92-4.94,5.34-8.86,9.18-15,13.1-.66.42-.64.44-1.5,1a6.28,6.28,0,0,1,.42-1.67c.42-1.38.5-1.72.94-3.09a50.05,50.05,0,0,0,2.31-9.81,41.67,41.67,0,0,0,.44-8.93c-.2-4-3.49-5-7.45-4.92a14.34,14.34,0,0,0-2.84.36c-2.84.66-5.34,2.12-8,3.32S302,95.88,299.34,97c-1.38.57-2.78,1.09-4.17,1.62-1.55.59-3.1,1.15-4.64,1.75h0a3.07,3.07,0,0,1-.35.24,4.16,4.16,0,0,0-.89,1.32,2.77,2.77,0,0,0,.75,2.8c.44.33,3.54-.56,4.68-.77a29.08,29.08,0,0,0,4.49-1.47c4.56-1.92,6.23-2.79,10.23-4.43,1.62-.91,4-1.61,5.64-2.42,1.54-.41,1.9-.48,2.21,0,.65,1,.12,3,0,3.41-.51,2.5-1,5-1.61,7.49-.85,3.19-1.92,6.33-2.81,9.51a10.64,10.64,0,0,0,.05,6.76,5.32,5.32,0,0,0,5.4,3.71,9.21,9.21,0,0,0,5-1.55,74.34,74.34,0,0,0,7-5,128.28,128.28,0,0,0,17.19-18.29c5.17-6.45,10.19-13,15.94-19a9.65,9.65,0,0,0,1.3-1.81,7.81,7.81,0,0,0,.5-1.43C363.61,78.77,363,78.89,361.56,80Z"></path></g><g id="Layer_2-2" data-name="Layer 2"><text class="cls-2" transform="translate(298.22 172.59)">Y<tspan class="cls-3" x="20.61" y="0">A</tspan><tspan class="cls-4" x="44.77" y="0">CH</tspan><tspan class="cls-5" x="97.57" y="0">T</tspan><tspan class="cls-6" x="117.09" y="0">S</tspan></text></g></g></svg>